<svg width="95" height="95" viewBox="0 0 95 95" fill="none" xmlns="http://www.w3.org/2000/svg">
<circle cx="47.5" cy="47.5" r="47.5" fill="url(#paint0_linear_2817_56)"/>
<g opacity="0.2">
<path d="M42.978 81.6881C42.978 81.6881 19 78.1396 19 57.71C19 37.2805 50.3542 35.3308 43.4154 9.98535C43.4154 9.98535 66.8919 17.3316 61.1609 40.2079C61.1609 40.2079 64.2645 38.2255 66.6411 34.3665C66.6411 34.3665 78.5286 43.5489 78.5286 57.5219C78.5286 71.4949 62.0491 81.7747 54.243 81.6791C54.243 81.6791 62.6656 70.3066 55.0029 62.9753C44.126 52.5672 48.7628 45.8837 48.7628 45.8837C48.7628 45.8837 22.2589 58.8491 42.978 81.6881Z" fill="#231F20"/>
</g>
<path d="M42.978 78.7027C42.978 78.7027 19 75.1542 19 54.7247C19 34.2951 50.3527 32.3455 43.4139 7C43.4139 7 66.8904 14.3463 61.1594 37.2226C61.1594 37.2226 64.263 35.2401 66.6396 31.3811C66.6396 31.3811 78.5271 40.5636 78.5271 54.5366C78.5271 68.5096 62.0491 78.7893 54.243 78.6938C54.243 78.6938 62.6656 67.3213 55.0029 59.9899C44.126 49.5818 48.7628 42.8984 48.7628 42.8984C48.7628 42.8984 22.2589 55.8637 42.978 78.7027Z" fill="url(#paint1_linear_2817_56)"/>
<defs>
<linearGradient id="paint0_linear_2817_56" x1="47.5" y1="0" x2="47.5" y2="95" gradientUnits="userSpaceOnUse">
<stop stop-color="#FF9A6E"/>
<stop offset="1" stop-color="#E50031"/>
</linearGradient>
<linearGradient id="paint1_linear_2817_56" x1="48.7635" y1="7" x2="48.7635" y2="78.7027" gradientUnits="userSpaceOnUse">
<stop stop-color="#FEA95E"/>
<stop offset="0.461538" stop-color="#FFEF79"/>
</linearGradient>
</defs>
</svg>
