<svg width="122" height="154" viewBox="0 0 122 154" fill="none" xmlns="http://www.w3.org/2000/svg">
<g filter="url(#filter0_f_2817_81)">
<ellipse cx="61" cy="143.786" rx="20.3333" ry="7.2619" fill="black" fill-opacity="0.2"/>
</g>
<path fill-rule="evenodd" clip-rule="evenodd" d="M61 0C94.6894 0 122 27.3106 122 61C122 86.8308 105.945 108.912 83.2689 117.808L64.4744 143.497C64.0826 144.035 63.5623 144.474 62.9576 144.777C62.3529 145.08 61.6815 145.238 61 145.238C60.3186 145.238 59.6471 145.08 59.0424 144.777C58.4377 144.474 57.9174 144.035 57.5256 143.497L38.7311 117.807C16.0554 108.912 0 86.8308 0 61C0 27.3106 27.3106 0 61 0Z" fill="url(#paint0_linear_2817_81)"/>
<path d="M71.2434 36.9035C68.5605 34.0069 64.8133 32.4117 60.6772 32.4117C56.5191 32.4117 52.7595 33.9972 50.089 36.8759C47.3896 39.7863 46.0743 43.7417 46.3831 48.0128C46.9953 56.4393 53.4075 63.2941 60.6772 63.2941C67.947 63.2941 74.3482 56.4407 74.97 48.0156C75.2829 43.7831 73.9594 39.8359 71.2434 36.9035Z" fill="black" fill-opacity="0.13"/>
<path d="M84.942 94.1764H36.4126C35.7773 94.1847 35.1483 94.0512 34.5711 93.7858C33.994 93.5203 33.4833 93.1296 33.0762 92.6419C32.18 91.5707 31.8188 90.1079 32.0863 88.6286C33.2499 82.1736 36.8813 76.7513 42.589 72.9448C47.6598 69.5656 54.083 67.7058 60.6773 67.7058C67.2715 67.7058 73.6947 69.567 78.7655 72.9448C84.4732 76.7499 88.1046 82.1723 89.2682 88.6272C89.5357 90.1065 89.1745 91.5693 88.2784 92.6406C87.8714 93.1285 87.3607 93.5195 86.7836 93.7852C86.2064 94.0508 85.5773 94.1845 84.942 94.1764Z" fill="black" fill-opacity="0.13"/>
<path d="M71.2434 32.4917C68.5605 29.5951 64.8133 28 60.6772 28C56.5191 28 52.7595 29.5855 50.089 32.4642C47.3896 35.3745 46.0743 39.33 46.3831 43.6011C46.9953 52.0276 53.4075 58.8824 60.6772 58.8824C67.947 58.8824 74.3482 52.029 74.97 43.6039C75.2829 39.3713 73.9594 35.4242 71.2434 32.4917Z" fill="white"/>
<path d="M84.942 89.7648H36.4126C35.7773 89.773 35.1483 89.6396 34.5711 89.3742C33.994 89.1087 33.4833 88.718 33.0762 88.2303C32.18 87.1591 31.8188 85.6963 32.0863 84.217C33.2499 77.762 36.8813 72.3397 42.589 68.5332C47.6598 65.154 54.083 63.2942 60.6773 63.2942C67.2715 63.2942 73.6947 65.1554 78.7655 68.5332C84.4732 72.3383 88.1046 77.7606 89.2682 84.2156C89.5357 85.6949 89.1745 87.1577 88.2784 88.2289C87.8714 88.7168 87.3607 89.1079 86.7836 89.3735C86.2064 89.6392 85.5773 89.7729 84.942 89.7648Z" fill="white"/>
<defs>
<filter id="filter0_f_2817_81" x="38.6667" y="134.524" width="44.6667" height="18.5238" filterUnits="userSpaceOnUse" color-interpolation-filters="sRGB">
<feFlood flood-opacity="0" result="BackgroundImageFix"/>
<feBlend mode="normal" in="SourceGraphic" in2="BackgroundImageFix" result="shape"/>
<feGaussianBlur stdDeviation="1" result="effect1_foregroundBlur_2817_81"/>
</filter>
<linearGradient id="paint0_linear_2817_81" x1="61" y1="0" x2="61" y2="145.238" gradientUnits="userSpaceOnUse">
<stop stop-color="#6CE06C"/>
<stop offset="1" stop-color="#1D9AD9"/>
</linearGradient>
</defs>
</svg>
