<svg width="95" height="95" viewBox="0 0 95 95" fill="none" xmlns="http://www.w3.org/2000/svg">
<circle cx="47.5" cy="47.5" r="47.5" fill="url(#paint0_linear_2821_130)"/>
<path d="M56.8635 23.448C54.5252 20.9235 51.2593 19.5332 47.6545 19.5332C44.0304 19.5332 40.7537 20.915 38.4262 23.424C36.0734 25.9606 34.9271 29.4079 35.1963 33.1305C35.7298 40.4747 41.3184 46.449 47.6545 46.449C53.9905 46.449 59.5695 40.4759 60.1114 33.1329C60.3842 29.444 59.2307 26.0038 56.8635 23.448Z" fill="black" fill-opacity="0.13"/>
<path d="M68.8027 73.3646H26.5064C25.9528 73.3718 25.4046 73.2555 24.9015 73.0242C24.3985 72.7928 23.9534 72.4523 23.5986 72.0273C22.8175 71.0936 22.5027 69.8187 22.7358 68.5294C23.75 62.9035 26.915 58.1776 31.8896 54.86C36.3091 51.9149 41.9073 50.2939 47.6546 50.2939C53.4018 50.2939 59.0001 51.9161 63.4196 54.86C68.3942 58.1764 71.5592 62.9023 72.5733 68.5282C72.8064 69.8175 72.4916 71.0924 71.7106 72.0261C71.3559 72.4513 70.9108 72.7921 70.4078 73.0236C69.9048 73.2552 69.3564 73.3717 68.8027 73.3646Z" fill="black" fill-opacity="0.13"/>
<path d="M56.8635 19.6029C54.5252 17.0784 51.2593 15.6881 47.6545 15.6881C44.0304 15.6881 40.7537 17.0699 38.4262 19.5789C36.0734 22.1155 34.9271 25.5628 35.1963 29.2854C35.7298 36.6296 41.3184 42.6039 47.6545 42.6039C53.9905 42.6039 59.5695 36.6308 60.1114 29.2878C60.3842 25.5989 59.2307 22.1587 56.8635 19.6029Z" fill="white"/>
<path d="M68.8027 69.5198H26.5064C25.9528 69.527 25.4046 69.4107 24.9015 69.1793C24.3985 68.948 23.9534 68.6074 23.5986 68.1824C22.8175 67.2488 22.5027 65.9739 22.7358 64.6846C23.75 59.0587 26.915 54.3328 31.8896 51.0152C36.3091 48.0701 41.9073 46.4491 47.6546 46.4491C53.4018 46.4491 59.0001 48.0713 63.4196 51.0152C68.3942 54.3316 71.5592 59.0575 72.5733 64.6834C72.8064 65.9727 72.4916 67.2476 71.7106 68.1812C71.3559 68.6064 70.9108 68.9472 70.4078 69.1788C69.9048 69.4104 69.3564 69.5268 68.8027 69.5198Z" fill="white"/>
<defs>
<linearGradient id="paint0_linear_2821_130" x1="47.5" y1="0" x2="47.5" y2="95" gradientUnits="userSpaceOnUse">
<stop stop-color="#6CE06C"/>
<stop offset="1" stop-color="#1D9AD9"/>
</linearGradient>
</defs>
</svg>
