<svg width="122" height="155" viewBox="0 0 122 155" fill="none" xmlns="http://www.w3.org/2000/svg">
<g filter="url(#filter0_f_2829_85)">
<ellipse cx="61" cy="144.786" rx="20.3333" ry="7.2619" fill="black" fill-opacity="0.2"/>
</g>
<path fill-rule="evenodd" clip-rule="evenodd" d="M61 0C94.6894 0 122 27.3106 122 61C122 86.8308 105.945 108.912 83.2689 117.808L64.4744 143.497C64.0826 144.035 63.5623 144.474 62.9576 144.777C62.3529 145.08 61.6815 145.238 61 145.238C60.3186 145.238 59.6471 145.08 59.0424 144.777C58.4377 144.474 57.9174 144.035 57.5256 143.497L38.7311 117.807C16.0554 108.912 0 86.8308 0 61C0 27.3106 27.3106 0 61 0Z" fill="url(#paint0_linear_2829_85)"/>
<mask id="mask0_2829_85" style="mask-type:alpha" maskUnits="userSpaceOnUse" x="0" y="1" width="122" height="146">
<path fill-rule="evenodd" clip-rule="evenodd" d="M61 1C94.6894 1 122 28.3106 122 62C122 87.8308 105.945 109.912 83.2689 118.808L64.4744 144.497C64.0826 145.035 63.5623 145.474 62.9576 145.777C62.3529 146.08 61.6815 146.238 61 146.238C60.3186 146.238 59.6471 146.08 59.0424 145.777C58.4377 145.474 57.9174 145.035 57.5256 144.497L38.7311 118.807C16.0554 109.912 0 87.8308 0 62C0 28.3106 27.3106 1 61 1Z" fill="url(#paint1_linear_2829_85)"/>
</mask>
<g mask="url(#mask0_2829_85)">
<path fill-rule="evenodd" clip-rule="evenodd" d="M77.2861 24.9667H44.7894L41.7249 27.0906L42.6806 34.9493L81.3369 33.1288L77.2861 24.9667Z" fill="#758797"/>
<path fill-rule="evenodd" clip-rule="evenodd" d="M80.1231 20.5063C78.5604 20.5063 77.3012 21.7656 77.3012 23.3282V32.9771H96.4321V23.3282C96.4321 21.7656 95.1729 20.5063 93.6103 20.5063H80.1231ZM28.4803 20.5063C26.9177 20.5063 25.6584 21.7656 25.6584 23.3282V32.9771H44.7893V23.3282C44.7893 21.7656 43.5301 20.5063 41.9675 20.5063H28.4803Z" fill="#8598AB"/>
<path fill-rule="evenodd" clip-rule="evenodd" d="M122 80V73.261C122 70.647 117.619 69.1058 113.691 70.919C109.784 72.7321 103.71 72.7321 99.1264 70.6017C94.5427 68.4712 88.4686 68.4712 83.8849 70.6017C79.3011 72.7321 73.2271 72.7321 68.6433 70.6017C66.3402 69.544 63.6757 69 61.0113 69C58.3468 69 55.6824 69.5288 53.3792 70.6017C48.7955 72.7321 42.7215 72.7321 38.1377 70.6017C35.8345 69.544 33.1701 69.0151 30.5056 69.0151C27.8412 69.0151 25.1768 69.544 22.8736 70.6017C18.2898 72.7321 12.2158 72.7321 8.30946 70.919C4.40311 69.1058 0 70.647 0 73.261V80H122Z" fill="#62D9FA"/>
<path d="M96.4321 40.4869H25.6584V80.6451H96.4321V40.4869Z" fill="#F0F4F6"/>
<path fill-rule="evenodd" clip-rule="evenodd" d="M77.286 47.9358C71.9458 47.9358 67.622 52.2596 67.622 57.5998C67.622 58.5556 67.7585 59.5114 68.0468 60.4217H86.5405C86.8136 59.4962 86.9501 58.5556 86.9501 57.5998C86.9501 52.2596 82.6263 47.9358 77.286 47.9358ZM44.7742 47.9358C39.4339 47.9358 35.1101 52.2596 35.1101 57.5998C35.1101 58.5556 35.2466 59.4962 35.5197 60.4065H54.0134C54.2865 59.5114 54.4382 58.5556 54.4382 57.5998C54.4382 52.2596 50.1144 47.9358 44.7742 47.9358Z" fill="#8598AB"/>
<path fill-rule="evenodd" clip-rule="evenodd" d="M25.6585 31.4296H96.417C98.9202 31.4296 100.938 33.4473 100.938 35.9506C100.938 38.4538 98.9202 40.4716 96.417 40.4716H25.6585C23.1552 40.4716 21.1375 38.4538 21.1375 35.9506C21.1375 33.4473 23.1552 31.4296 25.6585 31.4296Z" fill="#9DACB9"/>
<path fill-rule="evenodd" clip-rule="evenodd" d="M61.0452 76C58.3793 76 55.7133 76.523 53.4089 77.5839C48.8226 79.6908 42.7452 79.6908 38.1589 77.5839C35.8544 76.5379 33.1885 76.0149 30.5226 76.0149C27.8567 76.0149 25.1907 76.5379 22.8863 77.5839C18.3 79.6908 12.2226 79.6908 8.31407 77.8977C4.40556 76.1046 0 77.6287 0 80.2138V86.8782L63.4852 89L122 86.8782V80.2138C122 77.6287 117.617 76.1046 113.686 77.8977C109.755 79.6908 103.7 79.6908 99.1137 77.5839C94.5274 75.477 88.45 75.477 83.8637 77.5839C79.2774 79.6908 73.2 79.6908 68.6137 77.5839C66.3093 76.5379 63.6433 76 60.9774 76H61.0452Z" fill="#0ACFFB"/>
<path fill-rule="evenodd" clip-rule="evenodd" d="M61.0226 82C58.3576 82 55.6927 82.5607 53.3891 83.6983C48.8045 85.9573 42.7294 85.9573 38.1448 83.6983C35.8412 82.5768 33.1762 82.016 30.5113 82.016C27.8464 82.016 25.1814 82.5768 22.8778 83.6983C18.2932 85.9573 12.2181 85.9573 8.311 84.0347C4.40392 82.1122 0 83.7463 0 86.518V88.8732C0 91.7089 3.22955 94 7.22695 94H114.773C118.77 94 122 91.7089 122 88.8732V86.518C122 83.7463 117.619 82.1122 113.689 84.0347C109.782 85.9573 103.707 85.9573 99.1222 83.6983C94.5376 81.4393 88.4624 81.4393 83.8778 83.6983C79.2932 85.9573 73.2181 85.9573 68.6335 83.6983C66.3299 82.5768 63.6649 82 61 82H61.0226Z" fill="#62D9FA"/>
<path fill-rule="evenodd" clip-rule="evenodd" d="M70.8686 57.5999C69.306 57.5999 68.0468 58.8591 68.0468 60.4217V81.3276L86.5253 80.2505V60.4217C86.5253 58.8591 85.2661 57.5999 83.7035 57.5999H70.8686ZM38.3568 57.5999C36.7941 57.5999 35.5349 58.8591 35.5349 60.4217V80.2505L54.0134 81.3276V60.4217C54.0134 58.8591 52.7542 57.5999 51.1916 57.5999H38.3568Z" fill="#0ACFFB"/>
<path fill-rule="evenodd" clip-rule="evenodd" d="M42.0131 64.3663C41.1787 64.3663 40.496 65.049 40.496 65.8835V67.9467C40.496 68.7812 41.1787 69.4639 42.0131 69.4639C42.8475 69.4639 43.5302 68.7812 43.5302 67.9467V65.8835C43.5302 65.049 42.8475 64.3663 42.0131 64.3663Z" fill="#62D9FA"/>
<path fill-rule="evenodd" clip-rule="evenodd" d="M47.5506 64.3663C46.7162 64.3663 46.0334 65.049 46.0334 65.8835V71.2844C46.0334 72.1188 46.7162 72.8015 47.5506 72.8015C48.385 72.8015 49.0677 72.1188 49.0677 71.2844V65.8835C49.0677 65.049 48.385 64.3663 47.5506 64.3663Z" fill="#62D9FA"/>
<path fill-rule="evenodd" clip-rule="evenodd" d="M80.0624 64.3663C79.228 64.3663 78.5453 65.049 78.5453 65.8835V67.9467C78.5453 68.7812 79.228 69.4639 80.0624 69.4639C80.8968 69.4639 81.5795 68.7812 81.5795 67.9467V65.8835C81.5795 65.049 80.8968 64.3663 80.0624 64.3663Z" fill="#62D9FA"/>
<path fill-rule="evenodd" clip-rule="evenodd" d="M74.5251 64.3663C73.6906 64.3663 73.0079 65.049 73.0079 65.8835V71.2844C73.0079 72.1188 73.6906 72.8015 74.5251 72.8015C75.3595 72.8015 76.0422 72.1188 76.0422 71.2844V65.8835C76.0422 65.049 75.3595 64.3663 74.5251 64.3663Z" fill="#62D9FA"/>
</g>
<defs>
<filter id="filter0_f_2829_85" x="38.6666" y="135.524" width="44.6666" height="18.5238" filterUnits="userSpaceOnUse" color-interpolation-filters="sRGB">
<feFlood flood-opacity="0" result="BackgroundImageFix"/>
<feBlend mode="normal" in="SourceGraphic" in2="BackgroundImageFix" result="shape"/>
<feGaussianBlur stdDeviation="1" result="effect1_foregroundBlur_2829_85"/>
</filter>
<linearGradient id="paint0_linear_2829_85" x1="61" y1="0" x2="61" y2="145.238" gradientUnits="userSpaceOnUse">
<stop stop-color="#8598AB"/>
<stop offset="1" stop-color="#0ACFFB"/>
</linearGradient>
<linearGradient id="paint1_linear_2829_85" x1="61" y1="1" x2="61" y2="146.238" gradientUnits="userSpaceOnUse">
<stop stop-color="#FFC219"/>
<stop offset="1" stop-color="#82500B"/>
</linearGradient>
</defs>
</svg>
